# xmcd
#
# Track frame offsets:
#	150
#	16300
#	36100
#	54100
#	79000
#	103000
#	129850
#	151975
#	167950
#	184300
#	205525
#	225700
#	250000
#	268900
#	286075
#
# Disc length: 4037 seconds
#
# Revision: 2
# Processed by: cddbd v1.5.2PL0 Copyright (c) Steve Scherf et al.
# Submitted via: EasyCDDAExtractor 11.0.2.1
#
DISCID=bc0fc30f
DTITLE=Various Artist - Power Dance Vol. 3
DYEAR=1994
DGENRE=Dance
TTITLE0=Doop - Doop (Jean Lejeux Station Edit)
TTITLE1=Plp Enterprise Feat. Helena Paul - Ain't Nobody
TTITLE2=The Fog - Been A Long Time (The A-Team Doped 7'' Mix)
TTITLE3=Corona - The Rhythm Of The Night (Club Mix)
TTITLE4=T-Spoon - No Time To Waste (The Mixx Mix)
TTITLE5=Dj Miko - What's Up (Remix 1)
TTITLE6=Clinton Daniel - Relight My Fire (Anthem Edit)
TTITLE7=Activate - Let The Rhythm Take Control (Radio Mix)
TTITLE8=Bass Bumpers - The Music's Got Me (Paul Gotel's Banged Up Mix)
TTITLE9=Fargetta Feat. Lorna - Your Love (Radio Remix)
TTITLE10=Essono - I Can't Understand (House Remix)
TTITLE11=Beverly - The Power Of Love (Ozz Mix)
TTITLE12=Go Brooklyn - Passion '94 (Radio Mix)
TTITLE13=Laura Summer - I'd Do Anything For Love (Radio Version)
TTITLE14=Frank Sande - Rockers Night (A-Team Remix)
EXTD=
EXTT0=
EXTT1=
EXTT2=
EXTT3=
EXTT4=
EXTT5=
EXTT6=
EXTT7=
EXTT8=
EXTT9=
EXTT10=
EXTT11=
EXTT12=
EXTT13=
EXTT14=
PLAYORDER=
